<?xml version="1.0" encoding="UTF-8"?>
<svg version="1.1" xmlns="http://www.w3.org/2000/svg" width="512" height="512">
<path d="M0 0 C168.96 0 337.92 0 512 0 C512 168.96 512 337.92 512 512 C343.04 512 174.08 512 0 512 C0 343.04 0 174.08 0 0 Z " fill="#0C0E12" transform="translate(0,0)"/>
<path d="M0 0 C-1.02738281 0.4846875 -2.05476562 0.969375 -3.11328125 1.46875 C-29.87209855 14.31363022 -47.4217118 33.15643269 -57.5546875 61.09375 C-59.41245691 66.84851478 -60.34265025 72.78485915 -61.38989258 78.72937012 C-64.48069449 96.07243587 -68.1107819 114.09451185 -78 129 C-78.57492187 129.886875 -79.14984375 130.77375 -79.7421875 131.6875 C-88.38389713 144.06162118 -99.8514976 154.60307052 -111.22485352 164.43823242 C-129.75610362 180.74196051 -140.38423292 204.74915008 -143 229 C-143.11497813 233.31349929 -143.09438744 237.62288345 -143.0625 241.9375 C-143.05798828 243.09830078 -143.05347656 244.25910156 -143.04882812 245.45507812 C-143.03710647 248.30343934 -143.0206976 251.15169222 -143 254 C-158.22750034 231.15874949 -153.51401756 190.44964978 -149 165 C-144.76723666 143.92543866 -137.17951993 123.89315053 -127 105 C-126.65356445 104.34725098 -126.30712891 103.69450195 -125.95019531 103.02197266 C-117.61615934 87.38707717 -107.74706321 73.25040761 -96 60 C-95.21625 59.10539062 -94.4325 58.21078125 -93.625 57.2890625 C-91.44609424 54.83022787 -89.23656646 52.40643227 -87 50 C-86.31808594 49.26394531 -85.63617188 48.52789062 -84.93359375 47.76953125 C-78.52679137 41.10315309 -71.36911393 35.54519373 -64 30 C-63.43651855 29.57041992 -62.87303711 29.14083984 -62.29248047 28.69824219 C-47.78735214 17.68909132 -32.04901419 9.34602195 -15 3 C-13.80375 2.55398437 -12.6075 2.10796875 -11.375 1.6484375 C-3.45288798 -1.15096266 -3.45288798 -1.15096266 0 0 Z " fill="#EFE1C5" transform="translate(359,71)"/>
<path d="M0 0 C0.33 0 0.66 0 1 0 C2.64295957 30.13356367 -6.04119916 58.6876795 -25.40234375 82.12890625 C-33.50300172 91.08226506 -42.13584659 99.58716962 -51.26757812 107.4831543 C-61.3749313 116.33278582 -71.79072329 131.26273108 -73.20263672 144.96679688 C-74.1699519 160.0720603 -71.04521387 171.70296917 -60.94140625 183.37890625 C-59.58448347 184.85382231 -58.22518043 186.32655278 -56.86328125 187.796875 C-51.13192118 194.57357747 -48.62574743 201.34416312 -48.71875 210.14453125 C-49.37992966 216.85734143 -52.89807072 221.72861734 -58 226 C-67.51214494 232.40240525 -78.77106915 233.36311399 -90 232 C-99.420476 229.61291106 -105.91680735 225.0723492 -110.9375 216.8125 C-112.82472928 210.04067729 -113.44908195 203.00264181 -110.1875 196.5625 C-107.23257107 191.90444201 -103.56634329 187.73381708 -99.92260742 183.60375977 C-97.23964319 180.55844789 -94.96226292 177.55577845 -93 174 C-92.505 174.99 -92.505 174.99 -92 176 C-92.60498047 177.80004883 -92.60498047 177.80004883 -93.6171875 179.95703125 C-94.15666016 181.13168945 -94.15666016 181.13168945 -94.70703125 182.33007812 C-95.09246094 183.14927734 -95.47789062 183.96847656 -95.875 184.8125 C-99.73086494 193.0572078 -103.11524374 201.24875574 -100.24609375 210.40625 C-97.59689819 216.63965131 -94.92705647 221.2667504 -88.6875 224.3125 C-83.6212199 226.32581001 -79.79678135 226.9953899 -74.51953125 225.1171875 C-68.49207472 222.4284255 -65.28022308 219.71393698 -62 214 C-58.8150829 204.44524871 -60.31710486 194.95401331 -64.625 186.125 C-66.9248443 181.5620436 -69.45087434 177.19072298 -72.1875 172.875 C-83.8204743 154.23688313 -84.59903264 128.78340797 -80.03515625 107.83203125 C-72.70649422 80.70215406 -56.94345792 61.51714417 -34.82324219 44.72729492 C-19.16964573 32.78854164 -5.87278691 19.17464926 0 0 Z " fill="#E8D3AF" transform="translate(303,186)"/>
<path d="M0 0 C13.10636013 1.98222602 26.854495 6.44739165 35.5625 16.9375 C38.15682358 20.72088856 38.77057164 23.37657018 38 28 C34.32056259 37.68273003 25.42033311 43.1653505 16.48046875 47.48828125 C3.89938785 52.95279114 -9.52499977 55.72440674 -23 58 C-24.53358154 58.26478149 -24.53358154 58.26478149 -26.09814453 58.53491211 C-31.05295632 59.12550881 -35.93988672 59.20038246 -40.92578125 59.23828125 C-42.50446236 59.25297203 -42.50446236 59.25297203 -44.11503601 59.26795959 C-88.72023881 59.59774221 -88.72023881 59.59774221 -107 55 C-107.87333984 54.78037598 -108.74667969 54.56075195 -109.64648438 54.33447266 C-123.16034266 50.77461401 -140.89632847 45.57269273 -148.875 33.1875 C-151.40493065 28.83994928 -151.72317104 25.98184491 -151 21 C-145.91296922 10.82593844 -136.07552797 6.48081117 -125.93115234 2.63769531 C-122.01478837 1.3444535 -118.10647306 0.93090069 -114 1 C-117.71594155 3.47729437 -121.6855727 5.30075412 -125.73046875 7.16992188 C-131.16373682 9.79348065 -134.67032384 13.00548576 -138 18 C-138.8082843 23.37603049 -138.61619169 28.6936515 -135.5234375 33.34375 C-124.83506709 44.96392706 -107.71692689 49.74819958 -92.8125 52.6875 C-91.27045898 53.00557617 -91.27045898 53.00557617 -89.69726562 53.33007812 C-81.48398839 54.99585476 -73.51547195 56.1541175 -65.125 56.16796875 C-64.03360718 56.17296135 -64.03360718 56.17296135 -62.92016602 56.17805481 C-61.38737614 56.18308394 -59.85457546 56.18546439 -58.32177734 56.18530273 C-56.0333333 56.18746845 -53.74538903 56.20560964 -51.45703125 56.22460938 C-37.88046853 56.27845846 -24.58882663 55.25564641 -11.5 51.375 C-10.62126221 51.11775146 -9.74252441 50.86050293 -8.8371582 50.59545898 C2.80980621 47.02290657 17.38309856 41.83434984 24.20703125 31.1015625 C26.32444257 26.54237047 26.16129205 22.81365122 24.77734375 18.03125 C22.15925312 11.19000816 16.21513298 8.22233457 10 5 C6.70696733 3.54587552 3.38480932 2.22429273 0 1 C0 0.67 0 0.34 0 0 Z " fill="#C5A370" transform="translate(270,380)"/>
<path d="M0 0 C0.33 0.66 0.66 1.32 1 2 C0.39501953 3.80004883 0.39501953 3.80004883 -0.6171875 5.95703125 C-0.97683594 6.74013672 -1.33648437 7.52324219 -1.70703125 8.33007812 C-2.09246094 9.14927734 -2.47789062 9.96847656 -2.875 10.8125 C-6.73086494 19.0572078 -10.11524374 27.24875574 -7.24609375 36.40625 C-4.59689819 42.63965131 -1.92705647 47.2667504 4.3125 50.3125 C9.3787801 52.32581001 13.20321865 52.9953899 18.48046875 51.1171875 C24.50792528 48.4284255 27.71977692 45.71393698 31 40 C32.10514766 36.68455701 32.32107631 33.79589889 32.5625 30.3125 C32.64628906 29.13300781 32.73007813 27.95351563 32.81640625 26.73828125 C32.90728516 25.38283203 32.90728516 25.38283203 33 24 C33.66 25.32 34.32 26.64 35 28 C36.98 27.01 38.96 26.02 41 25 C43.17305308 26.73498402 43.93505208 27.63781294 44.43359375 30.41796875 C44.44502099 38.5198797 42.89831235 43.55335828 37.6875 49.75 C28.05499087 57.81442625 17.20590764 59.05370579 4.96289062 58.23828125 C-2.73403476 57.30392812 -9.57672972 53.59537737 -14.6640625 47.80078125 C-19.42724466 41.38023454 -20.02870238 34.75091597 -19 27 C-16.83627486 20.21116928 -11.55779237 14.85759269 -6.92260742 9.60375977 C-4.23964319 6.55844789 -1.96226292 3.55577845 0 0 Z " fill="#C9A672" transform="translate(210,360)"/>
<path d="M0 0 C-3.71594155 2.47729437 -7.6855727 4.30075412 -11.73046875 6.16992188 C-17.16373682 8.79348065 -20.67032384 12.00548576 -24 17 C-24.8082843 22.37603049 -24.61619169 27.6936515 -21.5234375 32.34375 C-13.79572611 40.74515931 -2.39832008 44.99408981 8 49 C8 49.66 8 50.32 8 51 C4.01895762 52.99052119 0.32157182 52.08618778 -3.84765625 50.96875 C-5.25779168 50.49431503 -6.662651 50.00397744 -8.0625 49.5 C-9.17588745 49.09950439 -9.17588745 49.09950439 -10.31176758 48.69091797 C-21.49270939 44.48741199 -31.48065071 39.03869858 -37 28 C-37.37942283 23.44692607 -37.49103644 20.98207287 -35.4375 16.875 C-26.92458295 6.83412349 -13.37407198 -0.30395618 0 0 Z " fill="#E2D0AE" transform="translate(156,381)"/>
<path d="M0 0 C0.66 1.32 1.32 2.64 2 4 C3.98 3.01 5.96 2.02 8 1 C10.17305308 2.73498402 10.93505208 3.63781294 11.43359375 6.41796875 C11.44502099 14.5198797 9.89831235 19.55335828 4.6875 25.75 C-3.69983586 32.7719556 -11.72725454 34.14989808 -22.375 34.25 C-23.42868774 34.26401855 -23.42868774 34.26401855 -24.50366211 34.27832031 C-28.21545781 34.25498979 -29.83356238 34.11095842 -33 32 C-28.12192928 29.09391531 -24.92999396 27.8673721 -19.14453125 28.1640625 C-13.92887846 27.76505081 -8.87261293 24.953845 -5.2890625 21.21484375 C-1.67987849 16.30176378 -0.85008619 12.26552935 -0.4375 6.3125 C-0.35371094 5.13300781 -0.26992187 3.95351563 -0.18359375 2.73828125 C-0.09271484 1.38283203 -0.09271484 1.38283203 0 0 Z " fill="#AB814C" transform="translate(243,384)"/>
<path d="M0 0 C0.495 1.485 0.495 1.485 1 3 C1.99 3.495 1.99 3.495 3 4 C2.34 4 1.68 4 1 4 C1 4.66 1 5.32 1 6 C-1.60033136 6.78600219 -4.20431055 7.55331892 -6.8125 8.3125 C-7.51181641 8.52583984 -8.21113281 8.73917969 -8.93164062 8.95898438 C-26.08698951 13.89206753 -43.32119231 14.53329381 -61.0625 14.4375 C-62.18198029 14.43578796 -63.30146057 14.43407593 -64.4548645 14.43231201 C-105.25847486 14.325033 -105.25847486 14.325033 -117 8 C-116.195625 7.87625 -115.39125 7.7525 -114.5625 7.625 C-113.716875 7.41875 -112.87125 7.2125 -112 7 C-111.67 6.34 -111.34 5.68 -111 5 C-109.97229492 5.21934204 -109.97229492 5.21934204 -108.92382812 5.44311523 C-105.78327437 6.11135764 -102.64165694 6.77446426 -99.5 7.4375 C-98.42234375 7.66759766 -97.3446875 7.89769531 -96.234375 8.13476562 C-95.17734375 8.35712891 -94.1203125 8.57949219 -93.03125 8.80859375 C-92.06767578 9.01282959 -91.10410156 9.21706543 -90.11132812 9.42749023 C-83.7558158 10.59695637 -77.58249064 11.15730853 -71.125 11.16796875 C-70.03360718 11.17296135 -70.03360718 11.17296135 -68.92016602 11.17805481 C-67.38737614 11.18308394 -65.85457546 11.18546439 -64.32177734 11.18530273 C-62.0333333 11.18746845 -59.74538903 11.20560964 -57.45703125 11.22460938 C-43.60117611 11.28003691 -30.2633875 10.14143395 -16.9375 6.0625 C-15.63135742 5.68448242 -15.63135742 5.68448242 -14.29882812 5.29882812 C-9.36215961 3.83984295 -4.68607108 2.13003231 0 0 Z " fill="#BF9F6B" transform="translate(276,425)"/>
<path d="M0 0 C0.66 0.33 1.32 0.66 2 1 C1.37351563 1.37511719 0.74703125 1.75023437 0.1015625 2.13671875 C-0.71570313 2.64847656 -1.53296875 3.16023438 -2.375 3.6875 C-3.18710938 4.18636719 -3.99921875 4.68523437 -4.8359375 5.19921875 C-7.36987976 7.30778803 -8.10272907 8.85707309 -9 12 C-8.88737806 17.29323125 -6.65805381 20.38715876 -3 24 C-0.68310191 25.57401062 1.39237733 26.83767186 3.875 28.0625 C4.54466797 28.39830078 5.21433594 28.73410156 5.90429688 29.08007812 C15.37477054 33.49737157 25.77739986 35.17261617 36 37 C36 37.33 36 37.66 36 38 C18.47591412 39.01425577 -0.28303338 35.33718344 -14.4765625 24.52734375 C-17.21123865 21.78565561 -17.94275377 19.44161381 -18.4375 15.625 C-17.89606687 11.13883981 -16.44612153 8.76757105 -13 6 C-8.83466985 3.53927152 -4.58901925 1.52967308 0 0 Z " fill="#E5D2AF" transform="translate(175,389)"/>
<path d="M0 0 C8.91 0 17.82 0 27 0 C27 8.91 27 17.82 27 27 C21.42330383 21.42330383 21.42330383 21.42330383 19.23828125 18.94921875 C13.77462671 12.84758147 8.35492247 7.32223757 1.765625 2.390625 C1.18296875 1.93171875 0.6003125 1.4728125 0 1 C0 0.67 0 0.34 0 0 Z " fill="#000000" transform="translate(485,0)"/>
<path d="M0 0 C0.51484621 2.05938485 1.02107885 4.10539426 1.4375 6.1875 C1.623125 6.785625 1.80875 7.38375 2 8 C2.66 8.33 3.32 8.66 4 9 C4.33 7.68 4.66 6.36 5 5 C5.33 5 5.66 5 6 5 C6.03738281 5.89460938 6.07476562 6.78921875 6.11328125 7.7109375 C7.01141222 24.22950315 11.9246251 34.63704437 23.1328125 46.8046875 C27.3238879 51.73226987 30.3685727 56.41176291 30 63 C29.01 61.68 28.02 60.36 27 59 C24.49034386 59.70339566 24.49034386 59.70339566 22 61 C21.30464127 63.03028196 21.30464127 63.03028196 21 65 C20.9484375 64.40316406 20.896875 63.80632812 20.84375 63.19140625 C19.3657751 51.88825733 13.92641317 41.38729607 7.8125 31.875 C2.50786528 23.38178704 -1.29729093 12.08665661 -1 2 C-0.67 1.34 -0.34 0.68 0 0 Z " fill="#D4C29C" transform="translate(223,327)"/>
<path d="M0 0 C7.92 0 15.84 0 24 0 C20.42683606 3.57316394 16.81548522 7.00418034 13.0625 10.375 C8.68319966 14.33601113 4.74930477 18.44003474 1 23 C0.67 23 0.34 23 0 23 C0 15.41 0 7.82 0 0 Z " fill="#000000" transform="translate(0,0)"/>
<path d="M0 0 C0.33 0 0.66 0 1 0 C1 7.92 1 15.84 1 24 C-6.59 24 -14.18 24 -22 24 C-16.51898734 18.51898734 -16.51898734 18.51898734 -14.0625 16.1328125 C-8.84819847 11.02513089 -4.03468914 6.12159731 0 0 Z " fill="#000000" transform="translate(511,488)"/>
<path d="M0 0 C0.33 0.66 0.66 1.32 1 2 C0.39501953 3.80004883 0.39501953 3.80004883 -0.6171875 5.95703125 C-0.97683594 6.74013672 -1.33648437 7.52324219 -1.70703125 8.33007812 C-2.09246094 9.14927734 -2.47789062 9.96847656 -2.875 10.8125 C-6.40420464 18.3587345 -8.14140875 23.86926344 -8.0625 32.3125 C-8.05347656 33.56675781 -8.04445312 34.82101562 -8.03515625 36.11328125 C-8.02355469 37.06589844 -8.01195312 38.01851563 -8 39 C-8.66 38.67 -9.32 38.34 -10 38 C-10 36.02 -10 34.04 -10 32 C-12.97 32.99 -15.94 33.98 -19 35 C-19.78524528 26.36230194 -16.75283059 21.26570764 -11.32421875 14.71484375 C-9.87415679 12.99532908 -8.41120458 11.29101238 -6.92260742 9.60473633 C-4.24047271 6.55849399 -1.96237542 3.5559823 0 0 Z " fill="#DEC9A1" transform="translate(210,360)"/>
<path d="M0 0 C5 5 5 5 7.24609375 7.28125 C12.23098837 12.32843541 12.23098837 12.32843541 17.5625 17 C18.366875 17.66 19.17125 18.32 20 19 C20 19.33 20 19.66 20 20 C13.4 20 6.8 20 0 20 C0 13.4 0 6.8 0 0 Z " fill="#000000" transform="translate(0,492)"/>
<path d="M0 0 C0.495 1.485 0.495 1.485 1 3 C1.66 3.33 2.32 3.66 3 4 C2.34 4 1.68 4 1 4 C1 4.66 1 5.32 1 6 C-8.29353507 8.80915696 -17.5250019 11.29510251 -27.125 12.8125 C-27.89303955 12.9360083 -28.6610791 13.0595166 -29.45239258 13.18676758 C-34.3494452 13.9133032 -39.0503486 14.10662514 -44 14 C-44 13.01 -44 12.02 -44 11 C-42.63294922 10.88785156 -42.63294922 10.88785156 -41.23828125 10.7734375 C-32.87884174 9.92501677 -25.01775494 8.38987566 -16.9375 6.0625 C-16.05811768 5.80968262 -15.17873535 5.55686523 -14.27270508 5.29638672 C-9.34770859 3.8306867 -4.6779415 2.12633705 0 0 Z " fill="#A58353" transform="translate(276,425)"/>
<path d="M0 0 C0.99 0.66 1.98 1.32 3 2 C3 2.99 3 3.98 3 5 C-4.26072514 7.83045217 -10.27133303 9.1803473 -18.125 9.1875 C-18.84042969 9.19974609 -19.55585938 9.21199219 -20.29296875 9.22460938 C-24.07820209 9.23522218 -25.77367012 9.15088659 -29 7 C-25.01977242 4.62880059 -21.66442244 2.70624156 -16.9375 2.9375 C-10.72321709 3.03613941 -6.3445277 -0.72096906 0 0 Z " fill="#9A703E" transform="translate(239,409)"/>
<path d="M0 0 C4.08286135 0.51035767 7.14183275 2.00567943 10.73046875 3.87890625 C14.71119444 5.84528882 18.85953663 7.40490346 23 9 C23 9.66 23 10.32 23 11 C18.9195245 13.04023775 14.9344307 12.10829692 10.765625 10.7578125 C9.2569187 10.22331446 7.75172501 9.6788094 6.25 9.125 C5.48300781 8.85558594 4.71601563 8.58617187 3.92578125 8.30859375 C-1.72855855 6.27144145 -1.72855855 6.27144145 -4 4 C-3.01 3.67 -2.02 3.34 -1 3 C-0.67 2.01 -0.34 1.02 0 0 Z " fill="#D7BD8E" transform="translate(141,421)"/>
<path d="M0 0 C12.85134209 1.9436567 25.85318864 6.39868869 35 16 C34.67 16.66 34.34 17.32 34 18 C33.01 17.34 32.02 16.68 31 16 C31 15.34 31 14.68 31 14 C29.33358994 14.990755 29.33358994 14.990755 28 17 C27.72654521 19.71846235 27.86508715 22.25677199 28 25 C26 22 26 22 24.6875 18.625 C20.04432097 8.65076357 9.78100537 4.58770484 0 1 C0 0.67 0 0.34 0 0 Z " fill="#D3BB8F" transform="translate(270,380)"/>
<path d="M0 0 C0.66 1.32 1.32 2.64 2 4 C3.98 3.01 5.96 2.02 8 1 C10.10633718 2.70828921 10.93801608 3.52148416 11.29296875 6.26171875 C11.25816406 7.06222656 11.22335938 7.86273438 11.1875 8.6875 C11.16042969 9.49574219 11.13335937 10.30398438 11.10546875 11.13671875 C11.07066406 11.75160156 11.03585938 12.36648438 11 13 C6.69254937 14.74990182 2.35834872 16.36561923 -2 18 C-1.34 12.06 -0.68 6.12 0 0 Z " fill="#BC9A68" transform="translate(243,384)"/>
<path d="M0 0 C1.0625 1.8125 1.0625 1.8125 2 4 C1.67 4.99 1.34 5.98 1 7 C1.06988645 9.76320278 1.51356577 12.2582798 2 15 C2.66 15.33 3.32 15.66 4 16 C4.66 12.7 5.32 9.4 6 6 C6.66 6 7.32 6 8 6 C7.9285376 6.56960449 7.8570752 7.13920898 7.78344727 7.72607422 C6.96883245 14.87618676 6.88315404 21.9346109 6.9375 29.125 C6.94201172 30.27226562 6.94652344 31.41953125 6.95117188 32.6015625 C6.96283661 35.40109813 6.97920386 38.20051986 7 41 C-0.44441438 29.83337842 -2.2646013 13.00615613 0 0 Z " fill="#D8C29B" transform="translate(209,284)"/>
<path d="M0 0 C5.74643362 2.44057027 11.52214535 3.73420307 17.625 4.96875 C18.676875 5.18917969 19.72875 5.40960938 20.8125 5.63671875 C23.37343322 6.1721866 25.93576617 6.6993628 28.5 7.21875 C28.5 7.54875 28.5 7.87875 28.5 8.21875 C20.37293244 8.6891269 13.0395237 8.19068731 5.125 6.40625 C4.38910645 6.24092773 3.65321289 6.07560547 2.89501953 5.90527344 C-2.07455638 4.71687226 -6.74668539 3.0911053 -11.5 1.21875 C-11.5 0.88875 -11.5 0.55875 -11.5 0.21875 C-6.88647501 -1.78713043 -4.60891244 -2.12333675 0 0 Z " fill="#CFB382" transform="translate(182.5,418.78125)"/>
<path d="M0 0 C0.51484621 2.05938485 1.02107885 4.10539426 1.4375 6.1875 C1.623125 6.785625 1.80875 7.38375 2 8 C2.66 8.33 3.32 8.66 4 9 C4.33 7.68 4.66 6.36 5 5 C5.33 5 5.66 5 6 5 C6.07347656 6.35931641 6.07347656 6.35931641 6.1484375 7.74609375 C6.57579127 14.70901291 7.25281404 21.24421429 9 28 C8.01 28.33 7.02 28.66 6 29 C-1.37978909 9.54624406 -1.37978909 9.54624406 -1 2 C-0.67 1.34 -0.34 0.68 0 0 Z " fill="#CDB07F" transform="translate(223,327)"/>
<path d="M0 0 C0.680625 0.721875 1.36125 1.44375 2.0625 2.1875 C5.09214518 5.23455693 8.46217304 7.57207954 12 10 C10 12 10 12 6.75 12.375 C2.37904291 11.93790429 0.34829608 10.79024674 -3 8 C-3.33 7.01 -3.66 6.02 -4 5 C-3.01 4.34 -2.02 3.68 -1 3 C-0.67 2.01 -0.34 1.02 0 0 Z " fill="#DCC399" transform="translate(166,407)"/>
<path d="M0 0 C11.08471923 1.60949085 21.79569099 16.59780783 28.59375 24.765625 C29.0578125 25.50296875 29.521875 26.2403125 30 27 C29.67 27.99 29.34 28.98 29 30 C28.48953125 29.34515625 27.9790625 28.6903125 27.453125 28.015625 C19.33673409 17.82696407 10.65149143 8.57894583 0 1 C0 0.67 0 0.34 0 0 Z " fill="#191A1D" transform="translate(482,0)"/>
<path d="M0 0 C0.556875 0.23976562 1.11375 0.47953125 1.6875 0.7265625 C1.03265625 1.16484375 0.3778125 1.603125 -0.296875 2.0546875 C-8.19265703 7.54158688 -14.66621601 13.8231873 -21.3125 20.7265625 C-22.97179385 22.40081992 -24.64113934 24.06431836 -26.3125 25.7265625 C-25.86184342 21.29510612 -22.85518277 18.62375372 -19.9375 15.5390625 C-19.40382813 14.9704248 -18.87015625 14.40178711 -18.3203125 13.81591797 C-4.60310291 -0.54428582 -4.60310291 -0.54428582 0 0 Z " fill="#17171B" transform="translate(26.3125,0.2734375)"/>
<path d="M0 0 C-3.19123852 2.12749234 -6.50674408 3.80763537 -9.9375 5.5 C-10.86852539 5.96212891 -10.86852539 5.96212891 -11.81835938 6.43359375 C-13.54489649 7.29042687 -15.27241612 8.14527939 -17 9 C-18.33375986 9.66581292 -19.66733534 10.33199766 -21 11 C-21.66 10.01 -22.32 9.02 -23 8 C-20.32863604 4.68750869 -17.1269488 3.70955692 -13.1875 2.3125 C-11.98480469 1.87550781 -10.78210938 1.43851562 -9.54296875 0.98828125 C-6.15763032 0.04396965 -3.4887111 -0.19767582 0 0 Z " fill="#DED3B8" transform="translate(156,381)"/>
<path d="M0 0 C0.99 0.33 1.98 0.66 3 1 C3 5.71906188 1.71245796 7.27037031 -1 11 C-2.32 9.68 -3.64 8.36 -5 7 C-6.65 8.32 -8.3 9.64 -10 11 C-9.43997584 7.46340908 -8.32225676 6.04440308 -5.5625 3.8125 C-4.94503906 3.30332031 -4.32757813 2.79414063 -3.69140625 2.26953125 C-2 1 -2 1 0 0 Z " fill="#E4D8BF" transform="translate(132,388)"/>
<path d="M0 0 C0.33 0.99 0.66 1.98 1 3 C-4.35385616 11.85699662 -13.57722989 21.03715107 -22 27 C-22.66 26.67 -23.32 26.34 -24 26 C-22.71034824 24.62437146 -21.37310707 23.29233607 -20 22 C-19.34 22 -18.68 22 -18 22 C-17.67 21.01 -17.34 20.02 -17 19 C-15.35360035 17.64172029 -13.68704193 16.30745749 -12 15 C-11.67 14.34 -11.34 13.68 -11 13 C-10.34 13 -9.68 13 -9 13 C-8.74476563 12.43796875 -8.48953125 11.8759375 -8.2265625 11.296875 C-6.84307219 8.70613518 -5.20061417 6.54892155 -3.375 4.25 C-2.74335938 3.45078125 -2.11171875 2.6515625 -1.4609375 1.828125 C-0.97882813 1.22484375 -0.49671875 0.6215625 0 0 Z " fill="#131417" transform="translate(511,485)"/>
<path d="M0 0 C3.95820859 0.56545837 6.6659053 1.80902348 10 4 C9.01 5.32 8.02 6.64 7 8 C3.0507432 7.44894091 -0.34920174 6.61064629 -4 5 C-3.67 4.34 -3.34 3.68 -3 3 C-2.34 3 -1.68 3 -1 3 C-0.67 2.01 -0.34 1.02 0 0 Z " fill="#D3BD94" transform="translate(141,421)"/>
<path d="M0 0 C2.90802461 2.21928194 4.95312762 3.92969143 7 7 C7.125 9.6875 7.125 9.6875 7 12 C6.01 10.68 5.02 9.36 4 8 C1.49034386 8.70339566 1.49034386 8.70339566 -1 10 C-1.69535873 12.03028196 -1.69535873 12.03028196 -2 14 C-3.45295405 5.96498906 -3.45295405 5.96498906 -1.5625 1.9375 C-1.046875 1.298125 -0.53125 0.65875 0 0 Z " fill="#D4B686" transform="translate(246,378)"/>
<path d="M0 0 C0.33 0.99 0.66 1.98 1 3 C1.66 3.33 2.32 3.66 3 4 C2.34 4 1.68 4 1 4 C1 4.66 1 5.32 1 6 C-3.12168689 7.62950412 -5.70700357 8.26264601 -10 7 C-10 6.01 -10 5.02 -10 4 C-6.7 2.68 -3.4 1.36 0 0 Z " fill="#B18D5C" transform="translate(276,425)"/>
<path d="M0 0 C1 2 1 2 0.37915039 3.87939453 C0.03875732 4.62302246 -0.30163574 5.36665039 -0.65234375 6.1328125 C-1.01650391 6.93847656 -1.38066406 7.74414062 -1.75585938 8.57421875 C-2.14580078 9.41597656 -2.53574219 10.25773437 -2.9375 11.125 C-3.32357422 11.97449219 -3.70964844 12.82398438 -4.10742188 13.69921875 C-5.06465908 15.80277704 -6.02908723 17.90272732 -7 20 C-7.66 19.67 -8.32 19.34 -9 19 C-9 17.68 -9 16.36 -9 15 C-9.66 14.67 -10.32 14.34 -11 14 C-10.45730469 13.40832031 -9.91460937 12.81664062 -9.35546875 12.20703125 C-8.64003906 11.41683594 -7.92460937 10.62664062 -7.1875 9.8125 C-6.47980469 9.03519531 -5.77210938 8.25789063 -5.04296875 7.45703125 C-3.06664371 5.08015085 -1.51417406 2.68921134 0 0 Z " fill="#D9CDB1" transform="translate(210,360)"/>
<path d="M0 0 C8.12751571 1.22921795 15.41479291 3.8850717 23 7 C22 9 22 9 20.1640625 9.76171875 C17.39665258 10.06643356 16.60198507 9.42824874 14.375 7.8125 C9.85586187 4.75995009 5.10153515 2.87125982 0 1 C0 0.67 0 0.34 0 0 Z " fill="#C3B38D" transform="translate(270,380)"/>
<path d="M0 0 C3.59930552 2.62652025 6.07666989 4.93963643 8 9 C7.67 9.66 7.34 10.32 7 11 C5.68 9.68 4.36 8.36 3 7 C2.01 8.32 1.02 9.64 0 11 C-2.08387097 6.58709677 -2.08387097 6.58709677 -1.6875 3.8125 C-1 2 -1 2 0 0 Z " fill="#D5C097" transform="translate(243,372)"/>
<path d="M0 0 C0.33 0 0.66 0 1 0 C1.33801152 2.54112232 1.67053379 5.08276746 2 7.625 C2.09539062 8.33785156 2.19078125 9.05070312 2.2890625 9.78515625 C2.81606101 13.88821609 3.10466984 17.85245742 3 22 C0.90278902 18.85418354 -0.05667086 16.1591082 -1.1875 12.5625 C-1.55230469 11.42941406 -1.91710937 10.29632813 -2.29296875 9.12890625 C-2.96248932 6.1660003 -3.07236414 4.77995035 -2 2 C-1.67 2.33 -1.34 2.66 -1 3 C-0.67 2.01 -0.34 1.02 0 0 Z " fill="#C1AD87" transform="translate(213,303)"/>
<path d="M0 0 C-6 3 -12 6 -18 9 C-18 8.01 -18 7.02 -18 6 C-18.99 5.67 -19.98 5.34 -21 5 C-18.06746654 3.96448955 -15.12833062 2.94918162 -12.1875 1.9375 C-11.35412109 1.64294922 -10.52074219 1.34839844 -9.66210938 1.04492188 C-8.45844727 0.6340332 -8.45844727 0.6340332 -7.23046875 0.21484375 C-6.49207764 -0.04176025 -5.75368652 -0.29836426 -4.99291992 -0.56274414 C-3 -1 -3 -1 0 0 Z " fill="#BDBAAD" transform="translate(359,71)"/>
<path d="M0 0 C0.33 0 0.66 0 1 0 C1 4.62 1 9.24 1 14 C-0.65 14.33 -2.3 14.66 -4 15 C-3.43179252 9.54520815 -2.05362055 5.08940744 0 0 Z " fill="#E5DECF" transform="translate(303,186)"/>
<path d="M0 0 C0.66 0.33 1.32 0.66 2 1 C0.8803014 2.00593243 -0.2459412 3.0045849 -1.375 4 C-2.31472656 4.8353125 -2.31472656 4.8353125 -3.2734375 5.6875 C-5 7 -5 7 -7 7 C-7.33 7.99 -7.66 8.98 -8 10 C-10.875 12.75 -10.875 12.75 -14 15 C-14.99 14.67 -15.98 14.34 -17 14 C-15.29639246 12.411583 -13.58688171 10.82949619 -11.875 9.25 C-10.44800781 7.92742187 -10.44800781 7.92742187 -8.9921875 6.578125 C-6.08970226 4.07728915 -3.22491526 2.04786904 0 0 Z " fill="#E3DBCA" transform="translate(294,102)"/>
<path d="M0 0 C-0.1875 1.8125 -0.1875 1.8125 -1 4 C-3.4375 5.8125 -3.4375 5.8125 -6 7 C-6.66 6.67 -7.32 6.34 -8 6 C-8 5.34 -8 4.68 -8 4 C-9.32 3.67 -10.64 3.34 -12 3 C-4.71428571 -0.42857143 -4.71428571 -0.42857143 0 0 Z " fill="#E0D7C5" transform="translate(341,77)"/>
<path d="M0 0 C0 0.66 0 1.32 0 2 C1.32 2.66 2.64 3.32 4 4 C-1.28 4 -6.56 4 -12 4 C-11.34 3.67 -10.68 3.34 -10 3 C-10 2.34 -10 1.68 -10 1 C-6.78548731 -0.60725635 -3.56387464 -0.05748185 0 0 Z " fill="#926A3C" transform="translate(225,414)"/>
<path d="M0 0 C1.89600369 0.31146472 3.79179587 0.62421717 5.6875 0.9375 C6.74324219 1.11152344 7.79898438 1.28554688 8.88671875 1.46484375 C11.60249604 1.93167121 14.30124235 2.44422616 17 3 C17 3.33 17 3.66 17 4 C14.77090129 4.02714735 12.54170633 4.04646254 10.3125 4.0625 C9.07113281 4.07410156 7.82976562 4.08570313 6.55078125 4.09765625 C3.53764546 4.01478673 0.91724661 3.70839449 -2 3 C-1.34 2.01 -0.68 1.02 0 0 Z " fill="#AE8C5B" transform="translate(194,423)"/>
<path d="M0 0 C0.33 2.31 0.66 4.62 1 7 C-1.31 7.33 -3.62 7.66 -6 8 C-5.62403791 5.21788056 -5.32681541 3.4120716 -3.5625 1.1875 C-2 0 -2 0 0 0 Z " fill="#E5D5B4" transform="translate(201,375)"/>
<path d="M0 0 C0.33 0.66 0.66 1.32 1 2 C-4.08086796 2.84681133 -8.84828377 3.09038099 -14 3 C-14 2.01 -14 1.02 -14 0 C-9.05313841 -0.76761645 -4.92057839 -1.32015518 0 0 Z " fill="#A07D50" transform="translate(246,436)"/>
<path d="M0 0 C-0.66 0 -1.32 0 -2 0 C-2.33 0.66 -2.66 1.32 -3 2 C-5.54941373 2.31241371 -8.00361513 2.51303421 -10.5625 2.625 C-11.62887695 2.68300781 -11.62887695 2.68300781 -12.71679688 2.7421875 C-14.47742425 2.83671783 -16.23867728 2.91945817 -18 3 C-18 3.66 -18 4.32 -18 5 C-19.65 5 -21.3 5 -23 5 C-20.44403516 1.87604298 -17.87332971 0.96833243 -14 0 C-11.66700175 -0.03954234 -9.33291811 -0.04401732 -7 0 C-3.86650268 -1.04449911 -3.01031744 -0.93423645 0 0 Z " fill="#B78C54" transform="translate(233,412)"/>
<path d="M0 0 C0.66 0 1.32 0 2 0 C2.31330487 5.22174778 1.88015136 8.57691041 -1 13 C-3.1875 14.375 -3.1875 14.375 -5 15 C-3.99664392 12.49160981 -2.99426125 9.98649705 -1.9375 7.5 C-1.00249669 5.00665785 -0.44920549 2.62036533 0 0 Z " fill="#B39467" transform="translate(306,401)"/>
<path d="M0 0 C0.33 0 0.66 0 1 0 C1.39252444 2.37326315 1.76427274 4.74687214 2.125 7.125 C2.23714844 7.79015625 2.34929687 8.4553125 2.46484375 9.140625 C3.13081723 13.6692447 2.77089679 16.78920097 1 21 C0.67 21 0.34 21 0 21 C0 14.07 0 7.14 0 0 Z " fill="#B9A681" transform="translate(221,306)"/>
<path d="M0 0 C1.625 1.5 1.625 1.5 3 4 C2.61604893 8.24052625 1.35351938 11.46972093 -1 15 C-2.4002792 9.53891111 -1.42705634 5.30723432 0 0 Z " fill="#D3BD96" transform="translate(224,290)"/>
<path d="M0 0 C0.66 0.33 1.32 0.66 2 1 C1.06027344 1.61488281 1.06027344 1.61488281 0.1015625 2.2421875 C-0.71570313 2.78101563 -1.53296875 3.31984375 -2.375 3.875 C-3.59316406 4.67550781 -3.59316406 4.67550781 -4.8359375 5.4921875 C-7.07594096 6.95865055 -7.07594096 6.95865055 -9 9 C-10.32 8.01 -11.64 7.02 -13 6 C-11.3970947 5.18501438 -9.79262722 4.37310073 -8.1875 3.5625 C-7.29417969 3.11003906 -6.40085938 2.65757812 -5.48046875 2.19140625 C-3 1 -3 1 0 0 Z " fill="#C2B89C" transform="translate(175,389)"/>
<path d="M0 0 C2.64 0.33 5.28 0.66 8 1 C6.23043542 3.14210449 5.12424348 3.96060573 2.4375 4.8125 C1.2309375 4.9053125 1.2309375 4.9053125 0 5 C-0.66 4.34 -1.32 3.68 -2 3 C-1.34 2.01 -0.68 1.02 0 0 Z " fill="#CAB184" transform="translate(149,426)"/>
<path d="M0 0 C1.65 1.65 3.3 3.3 5 5 C0.375 7.125 0.375 7.125 -3 6 C-2.625 3.5625 -2.625 3.5625 -2 1 C-1.34 0.67 -0.68 0.34 0 0 Z " fill="#BE9A65" transform="translate(280,423)"/>
<path d="M0 0 C1.0625 1.8125 1.0625 1.8125 2 4 C1.67 4.99 1.34 5.98 1 7 C1.25296226 8.99207781 1.5080585 10.98502681 1.84375 12.96484375 C2.01529326 15.19919478 1.64873457 16.86776211 1 19 C-0.93833398 12.36801431 -1.05268874 6.81402575 0 0 Z " fill="#E1CCA4" transform="translate(209,284)"/>
<path d="M0 0 C1.8871875 0.061875 1.8871875 0.061875 3.8125 0.125 C3.8125 1.115 3.8125 2.105 3.8125 3.125 C0.1825 2.795 -3.4475 2.465 -7.1875 2.125 C-4.09861478 0.06574319 -3.47814073 -0.1140374 0 0 Z " fill="#C3A574" transform="translate(189.1875,421.875)"/>
<path d="M0 0 C1.98 0.495 1.98 0.495 4 1 C3.835 1.886875 3.67 2.77375 3.5 3.6875 C3.07004243 6.53596892 2.91558965 9.13004802 3 12 C0.79107828 8.68661742 -0.08787021 5.85901066 -1 2 C-0.67 1.34 -0.34 0.68 0 0 Z " fill="#D0B381" transform="translate(295,393)"/>
<path d="M0 0 C2.97 0.495 2.97 0.495 6 1 C5.01 2.32 4.02 3.64 3 5 C0.36 4.67 -2.28 4.34 -5 4 C-2 2 -2 2 0 2 C0 1.34 0 0.68 0 0 Z " fill="#B0976B" transform="translate(164,430)"/>
<path d="M0 0 C-3.35327639 2.23551759 -3.90743657 2.17283528 -7.6875 1.625 C-8.49574219 1.51414062 -9.30398437 1.40328125 -10.13671875 1.2890625 C-10.75160156 1.19367188 -11.36648437 1.09828125 -12 1 C-12 0.67 -12 0.34 -12 0 C-7.74433453 -1.16063604 -4.3164922 -0.76173392 0 0 Z " fill="#B6905C" transform="translate(255,435)"/>
<path d="M0 0 C0.99 0.66 1.98 1.32 3 2 C2.01 2.99 1.02 3.98 0 5 C-2.31 4.34 -4.62 3.68 -7 3 C-7 2.67 -7 2.34 -7 2 C-3.6875 0.875 -3.6875 0.875 0 0 Z " fill="#C7AB7A" transform="translate(178,417)"/>
<path d="M0 0 C0.99 0.33 1.98 0.66 3 1 C1.57277341 2.1998278 0.13284224 3.3845576 -1.3125 4.5625 C-2.51326172 5.55443359 -2.51326172 5.55443359 -3.73828125 6.56640625 C-4.85783203 7.27603516 -4.85783203 7.27603516 -6 8 C-6.99 7.67 -7.98 7.34 -9 7 C-7.57277341 5.8001722 -6.13284224 4.6154424 -4.6875 3.4375 C-3.88699219 2.77621094 -3.08648437 2.11492187 -2.26171875 1.43359375 C-1.51535156 0.96050781 -0.76898438 0.48742187 0 0 Z " fill="#DFD6C4" transform="translate(278,223)"/>
<path d="M0 0 C-3.33960156 2.22640104 -6.08610984 3.16130925 -10 4 C-10.99 3.34 -11.98 2.68 -13 2 C-8.46298506 0.54815522 -4.81938524 -0.23509196 0 0 Z " fill="#B7B4A3" transform="translate(156,381)"/>
<path d="M0 0 C0.33 0.66 0.66 1.32 1 2 C0.00390625 4.3828125 0.00390625 4.3828125 -1.4375 7.125 C-1.91058594 8.03507812 -2.38367188 8.94515625 -2.87109375 9.8828125 C-3.24363281 10.58148438 -3.61617187 11.28015625 -4 12 C-4.66 11.01 -5.32 10.02 -6 9 C-4.02 6.03 -2.04 3.06 0 0 Z " fill="#C1BDB0" transform="translate(210,360)"/>
<path d="M0 0 C0.33 0.99 0.66 1.98 1 3 C-1.31 3 -3.62 3 -6 3 C-6 2.01 -6 1.02 -6 0 C-3 -1 -3 -1 0 0 Z " fill="#A97B43" transform="translate(231,414)"/>
<path d="M0 0 C1.98 0 3.96 0 6 0 C5.01 0.495 5.01 0.495 4 1 C4 1.99 4 2.98 4 4 C2.35 3.67 0.7 3.34 -1 3 C-0.67 2.01 -0.34 1.02 0 0 Z " fill="#C1A374" transform="translate(168,432)"/>
<path d="M0 0 C0.99 0.33 1.98 0.66 3 1 C1.515 3.475 1.515 3.475 0 6 C-0.99 4.68 -1.98 3.36 -3 2 C-2.01 1.34 -1.02 0.68 0 0 Z " fill="#CEB992" transform="translate(241,370)"/>
<path d="M0 0 C2.64 0.33 5.28 0.66 8 1 C6.25 2.5625 6.25 2.5625 4 4 C1.75 3.6875 1.75 3.6875 0 3 C0.66 3 1.32 3 2 3 C2 2.34 2 1.68 2 1 C1.34 0.67 0.68 0.34 0 0 Z " fill="#9F855A" transform="translate(181,434)"/>
<path d="M0 0 C1.65 0.33 3.3 0.66 5 1 C3.75 3 3.75 3 2 5 C0.68 5 -0.64 5 -2 5 C-1.34 3.35 -0.68 1.7 0 0 Z " fill="#DCC498" transform="translate(146,424)"/>
<path d="M0 0 C0.66 0.33 1.32 0.66 2 1 C2 2.32 2 3.64 2 5 C1.34 5 0.68 5 0 5 C-0.33 5.99 -0.66 6.98 -1 8 C-1.625 5.6875 -1.625 5.6875 -2 3 C-1.34 2.01 -0.68 1.02 0 0 Z " fill="#E6D1A7" transform="translate(243,372)"/>
<path d="M0 0 C0.66 0 1.32 0 2 0 C0.25 5.75 0.25 5.75 -2 8 C-2.6875 6.25 -2.6875 6.25 -3 4 C-1.6875 1.75 -1.6875 1.75 0 0 Z " fill="#C7AC7E" transform="translate(233,314)"/>
<path d="M0 0 C0.66 0.33 1.32 0.66 2 1 C0.02 3.31 -1.96 5.62 -4 8 C-4.33 7.01 -4.66 6.02 -5 5 C-3.35 3.35 -1.7 1.7 0 0 Z " fill="#E5DAC2" transform="translate(246,251)"/>
<path d="M0 0 C0 0.66 0 1.32 0 2 C-2.97 2 -5.94 2 -9 2 C-4.13793103 -1.24137931 -4.13793103 -1.24137931 0 0 Z " fill="#C5A36D" transform="translate(183,435)"/>
<path d="M0 0 C1.80411967 2.75924185 2.0127245 3.88972103 1.625 7.25 C1.41875 8.1575 1.2125 9.065 1 10 C0.34 9.34 -0.32 8.68 -1 8 C-0.96712417 5.27130593 -0.43602229 2.7033382 0 0 Z " fill="#BAA985" transform="translate(223,295)"/>
<path d="M0 0 C0.66 0.33 1.32 0.66 2 1 C0.35 2.65 -1.3 4.3 -3 6 C-3.99 5.67 -4.98 5.34 -6 5 C-4.02 3.35 -2.04 1.7 0 0 Z " fill="#DAD3C3" transform="translate(283,111)"/>
</svg>
